<svg xmlns="http://www.w3.org/2000/svg" viewBox="0 0 200 200">
  <!-- Background shield -->
  <path d="M100 10 L180 50 L180 150 L100 190 L20 150 L20 50 Z" fill="#4a90e2" />
  
  <!-- EMQX letters with more distinctive font -->
  <text x="100" y="85" font-family="'Trebuchet MS', sans-serif" font-size="28" font-weight="bold" text-anchor="middle" fill="white" style="letter-spacing: 2px;">EMQX</text>
  
  <!-- Guard text with matching style -->
  <text x="100" y="115" font-family="'Trebuchet MS', sans-serif" font-size="22" font-weight="bold" text-anchor="middle" fill="white" style="letter-spacing: 1px;">GUARD</text>
  
  <!-- Guardian icon (simplified person) -->
  <circle cx="100" cy="140" r="15" fill="white" />
  <path d="M85 165 Q100 180 115 165" stroke="white" stroke-width="4" fill="none" />
  
  <!-- Radar-like circles -->
  <circle cx="100" cy="100" r="70" stroke="white" stroke-width="2" fill="none" opacity="0.3" />
  <circle cx="100" cy="100" r="50" stroke="white" stroke-width="2" fill="none" opacity="0.5" />
  <circle cx="100" cy="100" r="30" stroke="white" stroke-width="2" fill="none" opacity="0.7" />
</svg>
<svg xmlns="http://www.w3.org/2000/svg" version="1.1" xmlns:xlink="http://www.w3.org/1999/xlink" xmlns:svgjs="http://svgjs.dev/svgjs" width="1500" height="1500" viewBox="0 0 1500 1500"><rect width="1500" height="1500" fill="#ffffff"></rect><g transform="matrix(0.6666666666666666,0,0,0.6666666666666666,249.39393939393938,664.4842305044009)"><svg viewBox="0 0 396 67" data-background-color="#ffffff" preserveAspectRatio="xMidYMid meet" height="253" width="1500" xmlns="http://www.w3.org/2000/svg" xmlns:xlink="http://www.w3.org/1999/xlink"><g id="tight-bounds" transform="matrix(1,0,0,1,0.2400000000000091,0.46970290240204804)"><svg viewBox="0 0 395.52 66.06059419519589" height="66.06059419519589" width="395.52"><g><svg viewBox="0 0 502.9721133891147 84.00747540983606" height="66.06059419519589" width="395.52"><g></g><g transform="matrix(1,0,0,1,107.45211338911474,11.610295081967216)"><svg viewBox="0 0 395.52 60.78688524590163" height="60.78688524590163" width="395.52"><g id="textblocktransform"><svg viewBox="0 0 395.52 60.78688524590163" height="60.78688524590163" width="395.52" id="textblock"><g><svg viewBox="0 0 395.52 60.78688524590163" height="60.78688524590163" width="395.52"><g transform="matrix(1,0,0,1,0,0)"><svg width="395.52" viewBox="3.45 -36.75 268.38 41.25" height="60.78688524590163" data-palette-color="url(#5b50195b-03c6-4e3c-a3c1-e5f454dbe2d0)"></svg></g></svg></g></svg></g></svg></g><g><svg viewBox="0 0 73.26963990295081 84.00747540983606" height="84.00747540983606" width="73.26963990295081"><g><svg xmlns="http://www.w3.org/2000/svg" xmlns:xlink="http://www.w3.org/1999/xlink" version="1.1" x="0" y="0" viewBox="6.391 0 87.21799999999999 100" enable-background="new 0 0 100 100" xml:space="preserve" height="84.00747540983606" width="73.26963990295081" class="icon-icon-0" data-fill-palette-color="accent" id="icon-0"></svg></g></svg></g></svg></g><defs></defs><mask id="fff21a60-3557-4d8b-8bec-7f492415b1d7"><g id="SvgjsG1140"><svg viewBox="0 0 395.52 66.06059419519589" height="66.06059419519589" width="395.52"><g><svg viewBox="0 0 502.9721133891147 84.00747540983606" height="66.06059419519589" width="395.52"><g><rect width="5.481824043540983" height="72.94426229508196" x="87.61996462426228" y="5.531606557377053" fill="white" opacity="1" stroke-width="0" stroke="transparent" fill-opacity="1" class="rect-yte-0" rx="1%" id="SvgjsRect1139" data-palette-color="url(#5b50195b-03c6-4e3c-a3c1-e5f454dbe2d0)"></rect></g><g transform="matrix(1,0,0,1,107.45211338911474,11.610295081967216)"><svg viewBox="0 0 395.52 60.78688524590163" height="60.78688524590163" width="395.52"><g id="SvgjsG1138"><svg viewBox="0 0 395.52 60.78688524590163" height="60.78688524590163" width="395.52" id="SvgjsSvg1137"><g><svg viewBox="0 0 395.52 60.78688524590163" height="60.78688524590163" width="395.52"><g transform="matrix(1,0,0,1,0,0)"><svg width="395.52" viewBox="3.45 -36.75 268.38 41.25" height="60.78688524590163" data-palette-color="url(#5b50195b-03c6-4e3c-a3c1-e5f454dbe2d0)"><path d="M28.45 0L28.45 0 5.25 0Q4.3 0 3.88-0.43 3.45-0.85 3.45-1.8L3.45-1.8 3.45-34.2Q3.45-35.15 3.88-35.58 4.3-36 5.25-36L5.25-36 28.45-36Q29.4-36 29.83-35.58 30.25-35.15 30.25-34.2L30.25-34.2 30.25-28.35Q30.25-27.4 29.83-26.98 29.4-26.55 28.45-26.55L28.45-26.55 14.65-26.55 14.65-22.7 24.4-22.7Q25.35-22.7 25.78-22.28 26.2-21.85 26.2-20.9L26.2-20.9 26.2-15.55Q26.2-14.6 25.78-14.18 25.35-13.75 24.4-13.75L24.4-13.75 14.65-13.75 14.65-9.45 28.45-9.45Q29.4-9.45 29.83-9.03 30.25-8.6 30.25-7.65L30.25-7.65 30.25-1.8Q30.25-0.85 29.83-0.43 29.4 0 28.45 0ZM45.4 0L45.4 0 37.95 0Q37 0 36.57-0.43 36.15-0.85 36.15-1.8L36.15-1.8 36.15-34.2Q36.15-35.15 36.57-35.58 37-36 37.95-36L37.95-36 46-36Q46.8-36 47.32-35.65 47.85-35.3 48.3-34.5L48.3-34.5 52.8-26.35Q53.05-25.9 53.22-25.7 53.4-25.5 53.7-25.5L53.7-25.5 54.15-25.5Q54.45-25.5 54.62-25.7 54.8-25.9 55.05-26.35L55.05-26.35 59.5-34.5Q59.95-35.3 60.47-35.65 61-36 61.8-36L61.8-36 69.9-36Q70.85-36 71.27-35.58 71.7-35.15 71.7-34.2L71.7-34.2 71.7-1.8Q71.7-0.85 71.27-0.43 70.85 0 69.9 0L69.9 0 62.2 0Q61.25 0 60.82-0.43 60.4-0.85 60.4-1.8L60.4-1.8 60.4-19.4 57.45-13.95Q57-13.1 56.37-12.73 55.75-12.35 54.8-12.35L54.8-12.35 52.8-12.35Q51.85-12.35 51.22-12.73 50.6-13.1 50.15-13.95L50.15-13.95 47.2-19.4 47.2-1.8Q47.2-0.85 46.77-0.43 46.35 0 45.4 0ZM97.4 4.5L97.4 4.5 89.7 4.5Q88.75 4.5 88.32 4.08 87.9 3.65 87.9 2.7L87.9 2.7 87.9-0.05Q82.1-0.9 80.07-3.53 78.05-6.15 78.05-9.9L78.05-9.9 78.05-26.5Q78.05-28.8 78.72-30.68 79.4-32.55 81.12-33.9 82.85-35.25 85.9-36 88.95-36.75 93.6-36.75L93.6-36.75Q98.25-36.75 101.27-36 104.3-35.25 106.02-33.9 107.75-32.55 108.42-30.68 109.1-28.8 109.1-26.5L109.1-26.5 109.1-9.9Q109.1-8 108.65-6.38 108.2-4.75 107.1-3.5 106-2.25 104.07-1.35 102.15-0.45 99.2-0.05L99.2-0.05 99.2 2.7Q99.2 3.65 98.77 4.08 98.35 4.5 97.4 4.5ZM89.4-24.65L89.4-11Q89.4-10 90.15-9.33 90.9-8.65 93.6-8.65L93.6-8.65Q96.3-8.65 97.05-9.33 97.8-10 97.8-11L97.8-11 97.8-24.65Q97.8-25.6 97.05-26.28 96.3-26.95 93.6-26.95L93.6-26.95Q90.9-26.95 90.15-26.28 89.4-25.6 89.4-24.65L89.4-24.65ZM126.19-6.75L126.19-1.8Q126.19-0.85 125.77-0.43 125.34 0 124.39 0L124.39 0 116.79 0Q115.84 0 115.42-0.43 114.99-0.85 114.99-1.8L114.99-1.8 114.99-7.15Q114.99-9.45 115.39-10.6 115.79-11.75 116.89-13.3L116.89-13.3 120.94-18.75 116.89-24.2Q115.74-25.75 115.37-26.9 114.99-28.05 114.99-30.35L114.99-30.35 114.99-34.2Q114.99-35.15 115.42-35.58 115.84-36 116.79-36L116.79-36 124.49-36Q125.44-36 125.87-35.58 126.29-35.15 126.29-34.2L126.29-34.2 126.29-30.75Q126.29-30.25 126.34-29.7 126.39-29.15 126.74-28.65L126.74-28.65 128.94-25.5Q129.19-25.1 129.47-24.88 129.74-24.65 130.14-24.65L130.14-24.65 130.74-24.65Q131.14-24.65 131.39-24.88 131.64-25.1 131.94-25.5L131.94-25.5 134.19-28.65Q134.54-29.15 134.59-29.7 134.64-30.25 134.64-30.75L134.64-30.75 134.64-34.2Q134.64-35.15 135.07-35.58 135.49-36 136.44-36L136.44-36 144.04-36Q144.99-36 145.42-35.58 145.84-35.15 145.84-34.2L145.84-34.2 145.84-30.35Q145.84-28.05 145.44-26.9 145.04-25.75 143.94-24.2L143.94-24.2 139.89-18.7 143.94-13.3Q145.09-11.75 145.47-10.6 145.84-9.45 145.84-7.15L145.84-7.15 145.84-1.8Q145.84-0.85 145.42-0.43 144.99 0 144.04 0L144.04 0 136.44 0Q135.49 0 135.07-0.43 134.64-0.85 134.64-1.8L134.64-1.8 134.64-6.75Q134.64-7.25 134.59-7.8 134.54-8.35 134.19-8.85L134.19-8.85 131.99-12Q131.69-12.45 131.44-12.65 131.19-12.85 130.79-12.85L130.79-12.85 130.09-12.85Q129.69-12.85 129.44-12.65 129.19-12.45 128.89-12L128.89-12 126.64-8.85Q126.29-8.35 126.24-7.8 126.19-7.25 126.19-6.75L126.19-6.75ZM163.49 0L163.49 0 153.39 0Q152.44 0 152.02-0.43 151.59-0.85 151.59-1.8L151.59-1.8 151.59-11.95Q151.59-12.9 152.02-13.33 152.44-13.75 153.39-13.75L153.39-13.75 163.49-13.75Q164.44-13.75 164.87-13.33 165.29-12.9 165.29-11.95L165.29-11.95 165.29-1.8Q165.29-0.85 164.87-0.43 164.44 0 163.49 0ZM190.14 0L190.14 0 173.29 0Q172.34 0 171.91-0.43 171.49-0.85 171.49-1.8L171.49-1.8 171.49-34.2Q171.49-35.15 171.91-35.58 172.34-36 173.29-36L173.29-36 190.14-36Q196.39-36 199.41-33.5 202.44-31 202.44-25.8L202.44-25.8 202.44-10.2Q202.44-5 199.41-2.5 196.39 0 190.14 0ZM188.79-26.45L182.84-26.45 182.84-9.45 188.79-9.45Q189.99-9.45 190.56-10.05 191.14-10.65 191.14-11.9L191.14-11.9 191.14-24.05Q191.14-25.3 190.56-25.88 189.99-26.45 188.79-26.45L188.79-26.45ZM233.79 0L233.79 0 210.59 0Q209.64 0 209.21-0.43 208.79-0.85 208.79-1.8L208.79-1.8 208.79-34.2Q208.79-35.15 209.21-35.58 209.64-36 210.59-36L210.59-36 233.79-36Q234.74-36 235.16-35.58 235.59-35.15 235.59-34.2L235.59-34.2 235.59-28.35Q235.59-27.4 235.16-26.98 234.74-26.55 233.79-26.55L233.79-26.55 219.99-26.55 219.99-22.7 229.74-22.7Q230.69-22.7 231.11-22.28 231.54-21.85 231.54-20.9L231.54-20.9 231.54-15.55Q231.54-14.6 231.11-14.18 230.69-13.75 229.74-13.75L229.74-13.75 219.99-13.75 219.99-9.45 233.79-9.45Q234.74-9.45 235.16-9.03 235.59-8.6 235.59-7.65L235.59-7.65 235.59-1.8Q235.59-0.85 235.16-0.43 234.74 0 233.79 0ZM262.78 0L262.78 0 249.78 0Q248.83 0 248.21-0.35 247.58-0.7 247.23-1.65L247.23-1.65 242.33-13.9Q241.88-15 241.58-15.83 241.28-16.65 241.08-17.4 240.88-18.15 240.81-18.98 240.73-19.8 240.73-21L240.73-21 240.73-34.2Q240.73-35.15 241.16-35.58 241.58-36 242.53-36L242.53-36 250.48-36Q251.43-36 251.93-35.58 252.43-35.15 252.43-34.2L252.43-34.2 252.43-20.4Q252.43-19.9 252.53-19.4 252.63-18.9 252.83-18.35L252.83-18.35 255.18-11.35Q255.33-10.85 255.53-10.68 255.73-10.5 256.13-10.5L256.13-10.5 256.68-10.5Q257.08-10.5 257.28-10.68 257.48-10.85 257.63-11.35L257.63-11.35 259.98-18.4Q260.18-18.95 260.28-19.45 260.38-19.95 260.38-20.45L260.38-20.45 260.38-34.2Q260.38-35.15 260.81-35.58 261.23-36 262.18-36L262.18-36 270.03-36Q270.98-36 271.41-35.58 271.83-35.15 271.83-34.2L271.83-34.2 271.83-21Q271.83-19.8 271.76-18.98 271.68-18.15 271.48-17.4 271.28-16.65 270.98-15.83 270.68-15 270.23-13.9L270.23-13.9 265.33-1.65Q264.98-0.7 264.36-0.35 263.73 0 262.78 0Z" opacity="1" transform="matrix(1,0,0,1,0,0)" fill="white" class="wordmark-text-0" id="SvgjsPath1136"></path></svg></g></svg></g></svg></g></svg></g><g><svg viewBox="0 0 73.26963990295081 84.00747540983606" height="84.00747540983606" width="73.26963990295081"><g><svg xmlns="http://www.w3.org/2000/svg" xmlns:xlink="http://www.w3.org/1999/xlink" version="1.1" x="0" y="0" viewBox="6.391 0 87.21799999999999 100" enable-background="new 0 0 100 100" xml:space="preserve" height="84.00747540983606" width="73.26963990295081" class="icon-icon-0" data-fill-palette-color="accent" id="SvgjsSvg1135"><path fill="black" d="M77.806 12.728C67.152 12.728 56.381 8.48 50 0 43.62 8.479 32.846 12.727 22.193 12.727 16.685 12.727 11.21 11.592 6.391 9.318 6.931 23.634 7.995 38.143 10.39 52.28 11.612 60.029 12.812 69.168 17.056 75.948 20.785 82.476 26.571 87.817 32.778 91.954A69.4 69.4 0 0 0 47.965 99.566C48.818 99.869 49.467 100 50.065 100 51.101 100 51.982 99.606 53.499 99.026 65.779 94.311 78.959 85.638 84.381 73.171 89.259 62.078 90.335 48.898 91.587 36.981 92.555 27.792 93.258 18.555 93.609 9.318 88.79 11.592 83.312 12.728 77.806 12.728M81.641 35.937L81.374 38.505C80.978 42.329 80.577 46.199 80.048 50.001H50V89.659L49.997 89.66A59.5 59.5 0 0 1 38.324 83.634C32.66 79.859 28.308 75.487 25.74 70.989L25.64 70.814 25.533 70.643C22.656 66.046 21.517 58.733 20.512 52.28L20.268 50.723 20.259 50.667 20.249 50.611C20.215 50.41 20.184 50.203 20.15 50.002H50V13.899C57.62 19.538 67.418 22.728 77.806 22.728A50 50 0 0 0 82.852 22.471 440 440 0 0 1 81.641 35.937"></path></svg></g></svg></g></svg></g><defs><mask></mask></defs></svg><rect width="395.52" height="66.06059419519589" fill="black" stroke="none" visibility="hidden"></rect></g></mask><linearGradient x1="0" x2="1" y1="0.578" y2="0.595" id="5b50195b-03c6-4e3c-a3c1-e5f454dbe2d0"><stop stop-color="#6ee2f5" offset="0"></stop><stop stop-color="#6454f0" offset="1"></stop></linearGradient><rect width="395.52" height="66.06059419519589" fill="url(#5b50195b-03c6-4e3c-a3c1-e5f454dbe2d0)" mask="url(#fff21a60-3557-4d8b-8bec-7f492415b1d7)" data-fill-palette-color="primary"></rect><mask id="9ad11f90-78d1-46a4-8cc5-7d926a92d97f"><g id="SvgjsG1150"><svg viewBox="0 0 395.52 66.06059419519589" height="66.06059419519589" width="395.52"><g><svg viewBox="0 0 502.9721133891147 84.00747540983606" height="66.06059419519589" width="395.52"><g></g><g transform="matrix(1,0,0,1,107.45211338911474,11.610295081967216)"><svg viewBox="0 0 395.52 60.78688524590163" height="60.78688524590163" width="395.52"><g id="SvgjsG1149"><svg viewBox="0 0 395.52 60.78688524590163" height="60.78688524590163" width="395.52" id="SvgjsSvg1148"><g><svg viewBox="0 0 395.52 60.78688524590163" height="60.78688524590163" width="395.52"><g transform="matrix(1,0,0,1,0,0)"><svg width="395.52" viewBox="3.45 -36.75 268.38 41.25" height="60.78688524590163" data-palette-color="url(#5b50195b-03c6-4e3c-a3c1-e5f454dbe2d0)"></svg></g></svg></g></svg></g></svg></g><g><svg viewBox="0 0 73.26963990295081 84.00747540983606" height="84.00747540983606" width="73.26963990295081"><g><svg xmlns="http://www.w3.org/2000/svg" xmlns:xlink="http://www.w3.org/1999/xlink" version="1.1" x="0" y="0" viewBox="6.391 0 87.21799999999999 100" enable-background="new 0 0 100 100" xml:space="preserve" height="84.00747540983606" width="73.26963990295081" class="icon-icon-0" data-fill-palette-color="accent" id="SvgjsSvg1147"><path fill="white" d="M77.806 12.728C67.152 12.728 56.381 8.48 50 0 43.62 8.479 32.846 12.727 22.193 12.727 16.685 12.727 11.21 11.592 6.391 9.318 6.931 23.634 7.995 38.143 10.39 52.28 11.612 60.029 12.812 69.168 17.056 75.948 20.785 82.476 26.571 87.817 32.778 91.954A69.4 69.4 0 0 0 47.965 99.566C48.818 99.869 49.467 100 50.065 100 51.101 100 51.982 99.606 53.499 99.026 65.779 94.311 78.959 85.638 84.381 73.171 89.259 62.078 90.335 48.898 91.587 36.981 92.555 27.792 93.258 18.555 93.609 9.318 88.79 11.592 83.312 12.728 77.806 12.728M81.641 35.937L81.374 38.505C80.978 42.329 80.577 46.199 80.048 50.001H50V89.659L49.997 89.66A59.5 59.5 0 0 1 38.324 83.634C32.66 79.859 28.308 75.487 25.74 70.989L25.64 70.814 25.533 70.643C22.656 66.046 21.517 58.733 20.512 52.28L20.268 50.723 20.259 50.667 20.249 50.611C20.215 50.41 20.184 50.203 20.15 50.002H50V13.899C57.62 19.538 67.418 22.728 77.806 22.728A50 50 0 0 0 82.852 22.471 440 440 0 0 1 81.641 35.937"></path></svg></g></svg></g></svg></g><defs><mask></mask></defs><mask><g id="SvgjsG1146"><svg viewBox="0 0 395.52 66.06059419519589" height="66.06059419519589" width="395.52"><g><svg viewBox="0 0 502.9721133891147 84.00747540983606" height="66.06059419519589" width="395.52"><g><rect width="5.481824043540983" height="72.94426229508196" x="87.61996462426228" y="5.531606557377053" fill="black" opacity="1" stroke-width="0" stroke="transparent" fill-opacity="1" class="rect-yte-0" rx="1%" id="SvgjsRect1145" data-palette-color="url(#5b50195b-03c6-4e3c-a3c1-e5f454dbe2d0)"></rect></g><g transform="matrix(1,0,0,1,107.45211338911474,11.610295081967216)"><svg viewBox="0 0 395.52 60.78688524590163" height="60.78688524590163" width="395.52"><g id="SvgjsG1144"><svg viewBox="0 0 395.52 60.78688524590163" height="60.78688524590163" width="395.52" id="SvgjsSvg1143"><g><svg viewBox="0 0 395.52 60.78688524590163" height="60.78688524590163" width="395.52"><g transform="matrix(1,0,0,1,0,0)"><svg width="395.52" viewBox="3.45 -36.75 268.38 41.25" height="60.78688524590163" data-palette-color="url(#5b50195b-03c6-4e3c-a3c1-e5f454dbe2d0)"><path d="M28.45 0L28.45 0 5.25 0Q4.3 0 3.88-0.43 3.45-0.85 3.45-1.8L3.45-1.8 3.45-34.2Q3.45-35.15 3.88-35.58 4.3-36 5.25-36L5.25-36 28.45-36Q29.4-36 29.83-35.58 30.25-35.15 30.25-34.2L30.25-34.2 30.25-28.35Q30.25-27.4 29.83-26.98 29.4-26.55 28.45-26.55L28.45-26.55 14.65-26.55 14.65-22.7 24.4-22.7Q25.35-22.7 25.78-22.28 26.2-21.85 26.2-20.9L26.2-20.9 26.2-15.55Q26.2-14.6 25.78-14.18 25.35-13.75 24.4-13.75L24.4-13.75 14.65-13.75 14.65-9.45 28.45-9.45Q29.4-9.45 29.83-9.03 30.25-8.6 30.25-7.65L30.25-7.65 30.25-1.8Q30.25-0.85 29.83-0.43 29.4 0 28.45 0ZM45.4 0L45.4 0 37.95 0Q37 0 36.57-0.43 36.15-0.85 36.15-1.8L36.15-1.8 36.15-34.2Q36.15-35.15 36.57-35.58 37-36 37.95-36L37.95-36 46-36Q46.8-36 47.32-35.65 47.85-35.3 48.3-34.5L48.3-34.5 52.8-26.35Q53.05-25.9 53.22-25.7 53.4-25.5 53.7-25.5L53.7-25.5 54.15-25.5Q54.45-25.5 54.62-25.7 54.8-25.9 55.05-26.35L55.05-26.35 59.5-34.5Q59.95-35.3 60.47-35.65 61-36 61.8-36L61.8-36 69.9-36Q70.85-36 71.27-35.58 71.7-35.15 71.7-34.2L71.7-34.2 71.7-1.8Q71.7-0.85 71.27-0.43 70.85 0 69.9 0L69.9 0 62.2 0Q61.25 0 60.82-0.43 60.4-0.85 60.4-1.8L60.4-1.8 60.4-19.4 57.45-13.95Q57-13.1 56.37-12.73 55.75-12.35 54.8-12.35L54.8-12.35 52.8-12.35Q51.85-12.35 51.22-12.73 50.6-13.1 50.15-13.95L50.15-13.95 47.2-19.4 47.2-1.8Q47.2-0.85 46.77-0.43 46.35 0 45.4 0ZM97.4 4.5L97.4 4.5 89.7 4.5Q88.75 4.5 88.32 4.08 87.9 3.65 87.9 2.7L87.9 2.7 87.9-0.05Q82.1-0.9 80.07-3.53 78.05-6.15 78.05-9.9L78.05-9.9 78.05-26.5Q78.05-28.8 78.72-30.68 79.4-32.55 81.12-33.9 82.85-35.25 85.9-36 88.95-36.75 93.6-36.75L93.6-36.75Q98.25-36.75 101.27-36 104.3-35.25 106.02-33.9 107.75-32.55 108.42-30.68 109.1-28.8 109.1-26.5L109.1-26.5 109.1-9.9Q109.1-8 108.65-6.38 108.2-4.75 107.1-3.5 106-2.25 104.07-1.35 102.15-0.45 99.2-0.05L99.2-0.05 99.2 2.7Q99.2 3.65 98.77 4.08 98.35 4.5 97.4 4.5ZM89.4-24.65L89.4-11Q89.4-10 90.15-9.33 90.9-8.65 93.6-8.65L93.6-8.65Q96.3-8.65 97.05-9.33 97.8-10 97.8-11L97.8-11 97.8-24.65Q97.8-25.6 97.05-26.28 96.3-26.95 93.6-26.95L93.6-26.95Q90.9-26.95 90.15-26.28 89.4-25.6 89.4-24.65L89.4-24.65ZM126.19-6.75L126.19-1.8Q126.19-0.85 125.77-0.43 125.34 0 124.39 0L124.39 0 116.79 0Q115.84 0 115.42-0.43 114.99-0.85 114.99-1.8L114.99-1.8 114.99-7.15Q114.99-9.45 115.39-10.6 115.79-11.75 116.89-13.3L116.89-13.3 120.94-18.75 116.89-24.2Q115.74-25.75 115.37-26.9 114.99-28.05 114.99-30.35L114.99-30.35 114.99-34.2Q114.99-35.15 115.42-35.58 115.84-36 116.79-36L116.79-36 124.49-36Q125.44-36 125.87-35.58 126.29-35.15 126.29-34.2L126.29-34.2 126.29-30.75Q126.29-30.25 126.34-29.7 126.39-29.15 126.74-28.65L126.74-28.65 128.94-25.5Q129.19-25.1 129.47-24.88 129.74-24.65 130.14-24.65L130.14-24.65 130.74-24.65Q131.14-24.65 131.39-24.88 131.64-25.1 131.94-25.5L131.94-25.5 134.19-28.65Q134.54-29.15 134.59-29.7 134.64-30.25 134.64-30.75L134.64-30.75 134.64-34.2Q134.64-35.15 135.07-35.58 135.49-36 136.44-36L136.44-36 144.04-36Q144.99-36 145.42-35.58 145.84-35.15 145.84-34.2L145.84-34.2 145.84-30.35Q145.84-28.05 145.44-26.9 145.04-25.75 143.94-24.2L143.94-24.2 139.89-18.7 143.94-13.3Q145.09-11.75 145.47-10.6 145.84-9.45 145.84-7.15L145.84-7.15 145.84-1.8Q145.84-0.85 145.42-0.43 144.99 0 144.04 0L144.04 0 136.44 0Q135.49 0 135.07-0.43 134.64-0.85 134.64-1.8L134.64-1.8 134.64-6.75Q134.64-7.25 134.59-7.8 134.54-8.35 134.19-8.85L134.19-8.85 131.99-12Q131.69-12.45 131.44-12.65 131.19-12.85 130.79-12.85L130.79-12.85 130.09-12.85Q129.69-12.85 129.44-12.65 129.19-12.45 128.89-12L128.89-12 126.64-8.85Q126.29-8.35 126.24-7.8 126.19-7.25 126.19-6.75L126.19-6.75ZM163.49 0L163.49 0 153.39 0Q152.44 0 152.02-0.43 151.59-0.85 151.59-1.8L151.59-1.8 151.59-11.95Q151.59-12.9 152.02-13.33 152.44-13.75 153.39-13.75L153.39-13.75 163.49-13.75Q164.44-13.75 164.87-13.33 165.29-12.9 165.29-11.95L165.29-11.95 165.29-1.8Q165.29-0.85 164.87-0.43 164.44 0 163.49 0ZM190.14 0L190.14 0 173.29 0Q172.34 0 171.91-0.43 171.49-0.85 171.49-1.8L171.49-1.8 171.49-34.2Q171.49-35.15 171.91-35.58 172.34-36 173.29-36L173.29-36 190.14-36Q196.39-36 199.41-33.5 202.44-31 202.44-25.8L202.44-25.8 202.44-10.2Q202.44-5 199.41-2.5 196.39 0 190.14 0ZM188.79-26.45L182.84-26.45 182.84-9.45 188.79-9.45Q189.99-9.45 190.56-10.05 191.14-10.65 191.14-11.9L191.14-11.9 191.14-24.05Q191.14-25.3 190.56-25.88 189.99-26.45 188.79-26.45L188.79-26.45ZM233.79 0L233.79 0 210.59 0Q209.64 0 209.21-0.43 208.79-0.85 208.79-1.8L208.79-1.8 208.79-34.2Q208.79-35.15 209.21-35.58 209.64-36 210.59-36L210.59-36 233.79-36Q234.74-36 235.16-35.58 235.59-35.15 235.59-34.2L235.59-34.2 235.59-28.35Q235.59-27.4 235.16-26.98 234.74-26.55 233.79-26.55L233.79-26.55 219.99-26.55 219.99-22.7 229.74-22.7Q230.69-22.7 231.11-22.28 231.54-21.85 231.54-20.9L231.54-20.9 231.54-15.55Q231.54-14.6 231.11-14.18 230.69-13.75 229.74-13.75L229.74-13.75 219.99-13.75 219.99-9.45 233.79-9.45Q234.74-9.45 235.16-9.03 235.59-8.6 235.59-7.65L235.59-7.65 235.59-1.8Q235.59-0.85 235.16-0.43 234.74 0 233.79 0ZM262.78 0L262.78 0 249.78 0Q248.83 0 248.21-0.35 247.58-0.7 247.23-1.65L247.23-1.65 242.33-13.9Q241.88-15 241.58-15.83 241.28-16.65 241.08-17.4 240.88-18.15 240.81-18.98 240.73-19.8 240.73-21L240.73-21 240.73-34.2Q240.73-35.15 241.16-35.58 241.58-36 242.53-36L242.53-36 250.48-36Q251.43-36 251.93-35.58 252.43-35.15 252.43-34.2L252.43-34.2 252.43-20.4Q252.43-19.9 252.53-19.4 252.63-18.9 252.83-18.35L252.83-18.35 255.18-11.35Q255.33-10.85 255.53-10.68 255.73-10.5 256.13-10.5L256.13-10.5 256.68-10.5Q257.08-10.5 257.28-10.68 257.48-10.85 257.63-11.35L257.63-11.35 259.98-18.4Q260.18-18.95 260.28-19.45 260.38-19.95 260.38-20.45L260.38-20.45 260.38-34.2Q260.38-35.15 260.81-35.58 261.23-36 262.18-36L262.18-36 270.03-36Q270.98-36 271.41-35.58 271.83-35.15 271.83-34.2L271.83-34.2 271.83-21Q271.83-19.8 271.76-18.98 271.68-18.15 271.48-17.4 271.28-16.65 270.98-15.83 270.68-15 270.23-13.9L270.23-13.9 265.33-1.65Q264.98-0.7 264.36-0.35 263.73 0 262.78 0Z" opacity="1" transform="matrix(1,0,0,1,0,0)" fill="black" class="wordmark-text-0" id="SvgjsPath1142"></path></svg></g></svg></g></svg></g></svg></g><g><svg viewBox="0 0 73.26963990295081 84.00747540983606" height="84.00747540983606" width="73.26963990295081"><g><svg xmlns="http://www.w3.org/2000/svg" xmlns:xlink="http://www.w3.org/1999/xlink" version="1.1" x="0" y="0" viewBox="6.391 0 87.21799999999999 100" enable-background="new 0 0 100 100" xml:space="preserve" height="84.00747540983606" width="73.26963990295081" class="icon-icon-0" data-fill-palette-color="accent" id="SvgjsSvg1141"><path fill="black" d="M77.806 12.728C67.152 12.728 56.381 8.48 50 0 43.62 8.479 32.846 12.727 22.193 12.727 16.685 12.727 11.21 11.592 6.391 9.318 6.931 23.634 7.995 38.143 10.39 52.28 11.612 60.029 12.812 69.168 17.056 75.948 20.785 82.476 26.571 87.817 32.778 91.954A69.4 69.4 0 0 0 47.965 99.566C48.818 99.869 49.467 100 50.065 100 51.101 100 51.982 99.606 53.499 99.026 65.779 94.311 78.959 85.638 84.381 73.171 89.259 62.078 90.335 48.898 91.587 36.981 92.555 27.792 93.258 18.555 93.609 9.318 88.79 11.592 83.312 12.728 77.806 12.728M81.641 35.937L81.374 38.505C80.978 42.329 80.577 46.199 80.048 50.001H50V89.659L49.997 89.66A59.5 59.5 0 0 1 38.324 83.634C32.66 79.859 28.308 75.487 25.74 70.989L25.64 70.814 25.533 70.643C22.656 66.046 21.517 58.733 20.512 52.28L20.268 50.723 20.259 50.667 20.249 50.611C20.215 50.41 20.184 50.203 20.15 50.002H50V13.899C57.62 19.538 67.418 22.728 77.806 22.728A50 50 0 0 0 82.852 22.471 440 440 0 0 1 81.641 35.937"></path></svg></g></svg></g></svg></g><defs><mask></mask></defs></svg><rect width="395.52" height="66.06059419519589" fill="black" stroke="none" visibility="hidden"></rect></g></mask></svg><rect width="395.52" height="66.06059419519589" fill="black" stroke="none" visibility="hidden"></rect></g></mask><linearGradient x1="0" x2="1" y1="0.578" y2="0.595" id="5980779e-bb4e-492b-bf4e-04f48ac8a3f7"><stop stop-color="#6ee2f5" offset="0"></stop><stop stop-color="#6454f0" offset="1"></stop></linearGradient><rect width="395.52" height="66.06059419519589" fill="url(#5980779e-bb4e-492b-bf4e-04f48ac8a3f7)" mask="url(#9ad11f90-78d1-46a4-8cc5-7d926a92d97f)" data-fill-palette-color="accent"></rect></svg><rect width="395.52" height="66.06059419519589" fill="none" stroke="none" visibility="hidden"></rect></g></svg></g></svg>
