<svg viewBox="0 0 200 200" xmlns="http://www.w3.org/2000/svg"><circle cx="100" cy="100" fill="#fff9e6" r="80"/><path d="m100 50q30 0 30 25v35q10 10 10 20h-80q0-10 10-20v-35q0-25 30-25z" fill="#fff0cc" stroke="#ffb347" stroke-linejoin="round" stroke-width="3"/><path d="m90 130q10 10 20 0" fill="none" stroke="#ffb347" stroke-linecap="round" stroke-width="3"/><circle cx="100" cy="50" fill="#fff0cc" r="5" stroke="#ffb347" stroke-width="2"/><path d="m100 70-15 25h20l-15 25" fill="#ffce84" stroke="#ffb347" stroke-linecap="round" stroke-linejoin="round" stroke-width="3"/><circle cx="90" cy="85" fill="#ffb347" r="4"/><circle cx="110" cy="85" fill="#ffb347" r="4"/><g stroke="#ffb347"><path d="m90 105q10 10 20 0" fill="none" stroke-linecap="round" stroke-width="2"/><path d="m150 100q10 0 15-10" fill="none" stroke-linecap="round" stroke-width="2"/><path d="m40 100q-10 0-15-10" fill="none" stroke-linecap="round" stroke-width="2"/><path d="m150 110q15 0 25-10" fill="none" stroke-linecap="round" stroke-width="2"/><path d="m40 110q-15 0-25-10" fill="none" stroke-linecap="round" stroke-width="2"/></g></svg>