<svg viewBox="0 0 200 200" xmlns="http://www.w3.org/2000/svg"><circle cx="100" cy="100" fill="#f2f8ff" r="80"/><path d="m100 30 40 15c0 55 0 95-40 125-40-30-40-70-40-125z" fill="#e6f2ff" stroke="#4a89dc" stroke-linejoin="round" stroke-width="3"/><circle cx="100" cy="95" fill="#fff" r="25" stroke="#4a89dc" stroke-width="2"/><circle cx="90" cy="90" fill="#4a89dc" r="5"/><circle cx="110" cy="90" fill="#4a89dc" r="5"/><g stroke="#4a89dc"><path d="m85 105q15 15 30 0" fill="none" stroke-linecap="round" stroke-width="3"/><path d="m60 65h15" stroke-linecap="round" stroke-width="2"/><path d="m125 65h15" stroke-linecap="round" stroke-width="2"/><path d="m65 135h15" stroke-linecap="round" stroke-width="2"/><path d="m120 135h15" stroke-linecap="round" stroke-width="2"/><path d="m100 50 20 10c0 40 0 70-20 90" fill="none" stroke-width="1.5"/><path d="m100 50-20 10c0 40 0 70 20 90" fill="none" stroke-width="1.5"/></g></svg>